<?xml version="1.0" encoding="iso-8859-1"?>
<!-- Generator: Adobe Illustrator 19.0.0, SVG Export Plug-In . SVG Version: 6.00 Build 0)  -->
<svg version="1.1" id="Layer_1" xmlns="http://www.w3.org/2000/svg" xmlns:xlink="http://www.w3.org/1999/xlink" x="0px" y="0px"
	 viewBox="0 0 101.742 47.486" style="enable-background:new 0 0 101.742 47.486;" xml:space="preserve">
<g id="XMLID_107_">
	<rect id="XMLID_483_" x="2.008" y="17.643" style="fill:none;" width="103.734" height="33.343"/>
	<path id="XMLID_473_" style="fill:#2465EA;" d="M16.485,44.243h-5.813v-8.663L2.008,18.027h6.041l4.37,9.613
		c0.456,1.026,0.722,2.242,0.988,3.306h0.38c0.228-1.064,0.532-2.28,0.95-3.306l4.37-9.613h5.965l-8.586,17.554V44.243z"/>
	<path id="XMLID_475_" style="fill:#2465EA;" d="M30.735,37.366l-1.899,6.877h-5.927l7.561-24.696c0.228-0.95,1.064-1.52,2.014-1.52
		h5.471c0.988,0,1.786,0.57,2.014,1.52l7.561,24.696h-5.889l-1.899-6.877H30.735z M36.282,24.866
		c-0.19-0.798-0.418-1.672-0.532-2.47h-1.025c-0.19,0.798-0.38,1.672-0.57,2.47l-2.204,8.017h6.535L36.282,24.866z"/>
	<path id="XMLID_478_" style="fill:#2465EA;" d="M55.435,37.366l-1.899,6.877h-5.927l7.561-24.696c0.228-0.95,1.063-1.52,2.014-1.52
		h5.471c0.988,0,1.786,0.57,2.014,1.52l7.561,24.696h-5.889l-1.899-6.877H55.435z M60.982,24.866
		c-0.19-0.798-0.418-1.672-0.532-2.47h-1.026c-0.19,0.798-0.38,1.672-0.57,2.47l-2.204,8.017h6.535L60.982,24.866z"/>
	<path id="XMLID_481_" style="fill:#2465EA;" d="M97.042,42.153c0,1.368-0.684,2.09-2.052,2.09h-3.609
		c-1.216,0-1.748-0.57-2.318-1.71l-6.877-13.982c-0.532-1.14-1.292-2.773-1.596-4.065h-0.418c0.19,1.368,0.266,2.812,0.266,4.179
		v15.578h-5.509V20.117c0-1.368,0.722-2.09,2.09-2.09h3.533c1.216,0,1.748,0.57,2.318,1.71l6.649,13.564
		c0.57,1.14,1.292,2.735,1.9,4.217h0.38c-0.114-1.482-0.228-2.925-0.228-4.407V18.027h5.471V42.153z"/>
</g>
<circle id="XMLID_289_" style="fill:none;stroke:#91D428;stroke-width:2;stroke-miterlimit:10;" cx="48.091" cy="7.47" r="2.964"/>
<circle id="XMLID_293_" style="fill:none;stroke:#2465EA;stroke-width:2;stroke-miterlimit:10;" cx="64.591" cy="7.118" r="3.908"/>
<circle id="XMLID_296_" style="fill:none;stroke:#2465EA;stroke-width:2;stroke-miterlimit:10;" cx="31.591" cy="7.118" r="3.908"/>
<g id="XMLID_106_">
</g>
<g id="XMLID_472_">
</g>
<g id="XMLID_484_">
</g>
<g id="XMLID_485_">
</g>
<g id="XMLID_486_">
</g>
<g id="XMLID_487_">
</g>
<g id="XMLID_488_">
</g>
<g id="XMLID_489_">
</g>
<g id="XMLID_490_">
</g>
<g id="XMLID_491_">
</g>
<g id="XMLID_492_">
</g>
<g id="XMLID_493_">
</g>
<g id="XMLID_494_">
</g>
<g id="XMLID_495_">
</g>
<g id="XMLID_496_">
</g>
</svg>
